<svg
  xmlns="http://www.w3.org/2000/svg"
  width="96px"
  height="96px"
  viewBox="0 0 60 60"
  color-interpolation-filters="sRGB"
>
  <g fill="#9F3434">
    <svg viewBox="0 0 60 60" x="0" y="0">
      <g>
        <g mask="url(#f50268a1-d096-4952-b880-9ea72833eb67)">
          <svg
            viewBox="0 0 100 100"
            width="60"
            height="60"
            x="0"
            y="0"
            filtersec="colorsf5029189877"
            filter="url(#TfgtIwJ5WR5Q6yty6vINe)"
          >
            <g>
              <path
                d="M50 0l50 50-50 50L0 50 50 0zm0 4.243L4.243 50 50 95.757 95.757 50 50 4.243z"
                fill="#333"
              ></path>
            </g>
            <defs>
              <filter id="TfgtIwJ5WR5Q6yty6vINe">
                <feColorMatrix
                  type="matrix"
                  values="0 0 0 0 0.62109375  0 0 0 0 0.203125  0 0 0 0 0.203125  0 0 0 1 0"
                ></feColorMatrix>
              </filter>
            </defs>
          </svg>
        </g>
        <g filter="url(#colors3558067177)">
          <svg
            viewBox="0 0 65.53125 64.96875"
            width="45"
            height="45"
            x="7.5"
            y="7.5"
          >
            <path
              transform="translate(0 56.25)"
              d="M27.28-50.63L25.31-56.25L37.41-56.25Q37.41-55.97 39.09-50.63L39.09-50.63L63.56-50.63L63.56-44.72L46.97-44.72L46.97-20.53L35.16-20.53L35.16-44.72L30.38-44.72L30.38-20.53L18.56-20.53L18.56-44.72L1.97-44.72L1.97-50.63L27.28-50.63ZM6.19-40.78L6.19-40.78L16.59-40.78L10.97-21.09L0.56-21.09Q6.19-40.78 6.19-40.78ZM54.56-21.09L48.94-40.78L59.34-40.78Q59.34-40.78 64.97-21.09L64.97-21.09L54.56-21.09ZM4.50-18L4.50-18L16.31-18L16.31-18Q16.31-16.31 11.81 8.72L11.81 8.72L0 8.72Q0.28 7.88 4.50-18ZM18.28-18L18.28-18L29.81-18L29.81 0.28Q29.81 2.25 31.78 2.81L31.78 2.81Q32.06 3.09 32.63 3.09L32.63 3.09L50.34 3.09L50.34 8.72L23.34 8.72Q20.81 8.72 18.84 6.19L18.84 6.19Q18 4.78 18 3.09L18 3.09L18-18Q18-18 18.28-18ZM37.13-0.84L33.19-18L44.44-18Q44.44-18 44.72-16.31L44.72-16.31Q45-15.47 48.38-0.84L48.38-0.84L37.13-0.84ZM49.22-18L49.22-18L61.03-18Q65.25 6.75 65.53 8.72L65.53 8.72L53.72 8.72Q49.22-17.44 49.22-18L49.22-18Z"
            ></path>
          </svg>
        </g>
      </g>
      <mask id="f9951beb-71cd-4bd8-ba8f-a2b4b2fbfed4">
        <g fill="white">
          <svg
            viewBox="0 0 100 100"
            width="60"
            height="60"
            x="0"
            y="0"
            filtersec="colorsf5029189877"
          >
            <g>
              <path
                d="M50 0l50 50-50 50L0 50 50 0zm0 4.243L4.243 50 50 95.757 95.757 50 50 4.243z"
              ></path>
            </g>
          </svg>
        </g>
        <g fill="black" filter="url(#ba3f3422-89a7-4d91-9f25-8a5324e23905)">
          <svg
            viewBox="0 0 65.53125 64.96875"
            width="45"
            height="45"
            x="7.5"
            y="7.5"
          >
            <path
              transform="translate(0 56.25)"
              d="M27.28-50.63L25.31-56.25L37.41-56.25Q37.41-55.97 39.09-50.63L39.09-50.63L63.56-50.63L63.56-44.72L46.97-44.72L46.97-20.53L35.16-20.53L35.16-44.72L30.38-44.72L30.38-20.53L18.56-20.53L18.56-44.72L1.97-44.72L1.97-50.63L27.28-50.63ZM6.19-40.78L6.19-40.78L16.59-40.78L10.97-21.09L0.56-21.09Q6.19-40.78 6.19-40.78ZM54.56-21.09L48.94-40.78L59.34-40.78Q59.34-40.78 64.97-21.09L64.97-21.09L54.56-21.09ZM4.50-18L4.50-18L16.31-18L16.31-18Q16.31-16.31 11.81 8.72L11.81 8.72L0 8.72Q0.28 7.88 4.50-18ZM18.28-18L18.28-18L29.81-18L29.81 0.28Q29.81 2.25 31.78 2.81L31.78 2.81Q32.06 3.09 32.63 3.09L32.63 3.09L50.34 3.09L50.34 8.72L23.34 8.72Q20.81 8.72 18.84 6.19L18.84 6.19Q18 4.78 18 3.09L18 3.09L18-18Q18-18 18.28-18ZM37.13-0.84L33.19-18L44.44-18Q44.44-18 44.72-16.31L44.72-16.31Q45-15.47 48.38-0.84L48.38-0.84L37.13-0.84ZM49.22-18L49.22-18L61.03-18Q65.25 6.75 65.53 8.72L65.53 8.72L53.72 8.72Q49.22-17.44 49.22-18L49.22-18Z"
            ></path>
          </svg>
        </g>
        <defs>
          <filter id="ba3f3422-89a7-4d91-9f25-8a5324e23905">
            <feGaussianBlur
              in="SourceGraphic"
              stdDeviation="1.26"
            ></feGaussianBlur>
            <feComponentTransfer>
              <feFuncA
                type="discrete"
                tableValues="0 1 1 1 1 1 1 1 1 1 1 1 1 1 0"
              ></feFuncA>
            </feComponentTransfer>
          </filter>
        </defs>
      </mask>
      <mask id="6e1d695e-da10-4886-bad5-11a7552bff29">
        <g mask="url(#f9951beb-71cd-4bd8-ba8f-a2b4b2fbfed4)" fill="white">
          <svg
            viewBox="0 0 100 100"
            width="60"
            height="60"
            x="0"
            y="0"
            filtersec="colorsf5029189877"
          >
            <g>
              <path
                d="M50 0l50 50-50 50L0 50 50 0zm0 4.243L4.243 50 50 95.757 95.757 50 50 4.243z"
              ></path>
            </g>
          </svg>
        </g>
        <g fill="black" filter="url(#7dfd6de1-d240-4f11-b3ee-1258505434d1)">
          <svg
            viewBox="0 0 65.53125 64.96875"
            width="45"
            height="45"
            x="7.5"
            y="7.5"
          >
            <path
              transform="translate(0 56.25)"
              d="M27.28-50.63L25.31-56.25L37.41-56.25Q37.41-55.97 39.09-50.63L39.09-50.63L63.56-50.63L63.56-44.72L46.97-44.72L46.97-20.53L35.16-20.53L35.16-44.72L30.38-44.72L30.38-20.53L18.56-20.53L18.56-44.72L1.97-44.72L1.97-50.63L27.28-50.63ZM6.19-40.78L6.19-40.78L16.59-40.78L10.97-21.09L0.56-21.09Q6.19-40.78 6.19-40.78ZM54.56-21.09L48.94-40.78L59.34-40.78Q59.34-40.78 64.97-21.09L64.97-21.09L54.56-21.09ZM4.50-18L4.50-18L16.31-18L16.31-18Q16.31-16.31 11.81 8.72L11.81 8.72L0 8.72Q0.28 7.88 4.50-18ZM18.28-18L18.28-18L29.81-18L29.81 0.28Q29.81 2.25 31.78 2.81L31.78 2.81Q32.06 3.09 32.63 3.09L32.63 3.09L50.34 3.09L50.34 8.72L23.34 8.72Q20.81 8.72 18.84 6.19L18.84 6.19Q18 4.78 18 3.09L18 3.09L18-18Q18-18 18.28-18ZM37.13-0.84L33.19-18L44.44-18Q44.44-18 44.72-16.31L44.72-16.31Q45-15.47 48.38-0.84L48.38-0.84L37.13-0.84ZM49.22-18L49.22-18L61.03-18Q65.25 6.75 65.53 8.72L65.53 8.72L53.72 8.72Q49.22-17.44 49.22-18L49.22-18Z"
            ></path>
          </svg>
        </g>
        <defs>
          <filter id="7dfd6de1-d240-4f11-b3ee-1258505434d1">
            <feGaussianBlur
              in="SourceGraphic"
              stdDeviation="1.26"
            ></feGaussianBlur>
            <feComponentTransfer>
              <feFuncA
                type="discrete"
                tableValues="0 1 1 1 1 1 1 1 1 1 1 1 1 1 0"
              ></feFuncA>
            </feComponentTransfer>
          </filter>
        </defs>
      </mask>
      <mask id="f50268a1-d096-4952-b880-9ea72833eb67">
        <g mask="url(#6e1d695e-da10-4886-bad5-11a7552bff29)" fill="white">
          <svg
            viewBox="0 0 100 100"
            width="60"
            height="60"
            x="0"
            y="0"
            filtersec="colorsf5029189877"
          >
            <g>
              <path
                d="M50 0l50 50-50 50L0 50 50 0zm0 4.243L4.243 50 50 95.757 95.757 50 50 4.243z"
              ></path>
            </g>
          </svg>
        </g>
        <g fill="black" filter="url(#3662ce36-b033-40b9-bc4e-da4ee6ab05ce)">
          <svg
            viewBox="0 0 65.53125 64.96875"
            width="45"
            height="45"
            x="7.5"
            y="7.5"
          >
            <path
              transform="translate(0 56.25)"
              d="M27.28-50.63L25.31-56.25L37.41-56.25Q37.41-55.97 39.09-50.63L39.09-50.63L63.56-50.63L63.56-44.72L46.97-44.72L46.97-20.53L35.16-20.53L35.16-44.72L30.38-44.72L30.38-20.53L18.56-20.53L18.56-44.72L1.97-44.72L1.97-50.63L27.28-50.63ZM6.19-40.78L6.19-40.78L16.59-40.78L10.97-21.09L0.56-21.09Q6.19-40.78 6.19-40.78ZM54.56-21.09L48.94-40.78L59.34-40.78Q59.34-40.78 64.97-21.09L64.97-21.09L54.56-21.09ZM4.50-18L4.50-18L16.31-18L16.31-18Q16.31-16.31 11.81 8.72L11.81 8.72L0 8.72Q0.28 7.88 4.50-18ZM18.28-18L18.28-18L29.81-18L29.81 0.28Q29.81 2.25 31.78 2.81L31.78 2.81Q32.06 3.09 32.63 3.09L32.63 3.09L50.34 3.09L50.34 8.72L23.34 8.72Q20.81 8.72 18.84 6.19L18.84 6.19Q18 4.78 18 3.09L18 3.09L18-18Q18-18 18.28-18ZM37.13-0.84L33.19-18L44.44-18Q44.44-18 44.72-16.31L44.72-16.31Q45-15.47 48.38-0.84L48.38-0.84L37.13-0.84ZM49.22-18L49.22-18L61.03-18Q65.25 6.75 65.53 8.72L65.53 8.72L53.72 8.72Q49.22-17.44 49.22-18L49.22-18Z"
            ></path>
          </svg>
        </g>
        <defs>
          <filter id="3662ce36-b033-40b9-bc4e-da4ee6ab05ce">
            <feGaussianBlur
              in="SourceGraphic"
              stdDeviation="1.26"
            ></feGaussianBlur>
            <feComponentTransfer>
              <feFuncA
                type="discrete"
                tableValues="0 1 1 1 1 1 1 1 1 1 1 1 1 1 0"
              ></feFuncA>
            </feComponentTransfer>
          </filter>
        </defs>
      </mask>
    </svg>
    <defs>
      <filter id="colors3558067177">
        <feColorMatrix
          type="matrix"
          values="0 0 0 0 0.99609375  0 0 0 0 0.390625  0 0 0 0 0.69140625  0 0 0 1 0"
        ></feColorMatrix>
      </filter>
      <filter id="colorsf5029189877">
        <feColorMatrix
          type="matrix"
          values="0 0 0 0 0.99609375  0 0 0 0 0.99609375  0 0 0 0 0.99609375  0 0 0 1 0"
        ></feColorMatrix>
      </filter>
    </defs>
  </g>
</svg>
